<svg width="38" height="38" viewBox="0 0 38 38" fill="none" xmlns="http://www.w3.org/2000/svg">
<path fill-rule="evenodd" clip-rule="evenodd" d="M1 13.403C1 12.1659 1.63135 11.0143 2.67432 10.3491L17.0525 0.74423C18.2403 -0.0133766 19.7597 -0.013376 20.9475 0.744231L35.3257 10.3491C36.3687 11.0143 37 12.1659 37 13.403V33.5088C37 35.892 35.068 37.824 32.6848 37.824H5.31524C2.932 37.824 1 35.892 1 33.5088V13.403ZM24.387 10.207C27.936 11.3005 30.1211 17.9587 22.0211 18.6512C19.241 18.8889 17.8806 8.20241 24.387 10.207ZM18.1014 18.149C16.2464 22.4805 7.78672 20.0665 11.0271 13.671C13.542 8.70717 19.9564 13.8175 18.1014 18.149ZM27.8997 25.3249C25.477 24.4027 23.5771 18.9576 30.0809 18.8098C33.5102 18.7319 32.0966 27.2971 27.8997 25.3249ZM12.3494 26.9077C13.0273 21.5271 23.1619 14.974 26.6771 28.1212C28.5306 35.0535 10.4129 36.4138 12.3494 26.9077ZM7.24781 21.1683C9.28847 19.633 13.8794 21.1017 10.9981 25.8918C10.0092 27.5359 3.5066 23.9831 7.24781 21.1683Z" fill="black"/>
</svg>
