<svg width="123" height="166" viewBox="0 0 123 166" fill="none" xmlns="http://www.w3.org/2000/svg">
<path d="M96.4689 112.529C94.2611 111.789 91.9029 110.737 89.4617 109.508M89.4617 109.508L108.038 27.0515C109.57 20.2516 105.3 13.4973 98.4999 11.9653L51.2102 1.31133C44.4103 -0.220626 37.656 4.04988 36.124 10.8498L35.4451 13.8632M89.4617 109.508L89.4362 109.621M89.4617 109.508C83.9027 106.708 77.9129 102.992 72.2864 99.9581M70.557 125.545C76.2364 146.814 87.5472 151.6 96.666 151.592M70.557 125.545C70.6866 126.651 72.5125 131.15 73.6884 137.382M70.557 125.545C69.7818 119.238 64.6504 112.747 59.2753 107.216M100.57 61.0797C102.926 62.6717 102.49 62.0545 104.698 63.6963C128.346 87.4683 122.579 139.189 115.802 165.253M64.7487 9.97347L82.7917 14.3503M73.6884 137.382L23.1414 125.963C16.3345 124.437 12.0563 117.679 13.5895 110.874L16.5477 97.7431M73.6884 137.382C74.6767 142.62 75.2057 149.082 73.8825 155.783M35.4451 13.8632L26.4138 11.861C21.5611 10.7852 16.755 13.847 15.6792 18.6997L0.96526 85.07C-0.110567 89.9228 2.95122 94.7288 7.80396 95.8047L16.5477 97.7431M35.4451 13.8632L79.9665 23.7334C84.8192 24.8092 87.881 29.6153 86.8052 34.468L72.2864 99.9581M16.5477 97.7431L59.2753 107.216M59.2753 107.216C56.1279 103.977 52.8969 101.067 50.408 98.7149C53.8222 91.4693 62.5054 94.6835 72.2864 99.9581M45.513 79.6631C48.0832 70.026 58.0913 72.5473 62.8759 70.7408C65.6471 69.6944 68.1409 63.7748 69.4095 58.8102C70.0356 56.3599 67.8375 54.4141 65.3234 54.668C61.7381 55.0302 57.6895 54.8802 56.1897 52.6745C53.875 49.2704 51.9521 47.0523 47.2403 46.5264C44.2973 46.4954 41.6708 46.7321 39.3264 47.185M39.2042 41.4165C39.8346 39.396 41.5265 35.6839 43.4258 35.4278C44.992 35.2166 47.1515 37.2479 48.4015 43.6601M39.3264 47.185C36.8427 42.2341 33.1214 38.2569 30.2364 36.8362C29.1759 36.314 27.9533 36.7715 27.3075 37.7624C24.305 42.3697 24.9695 48.7341 26.4672 53.8582M39.3264 47.185C39.9185 48.3653 40.4403 49.6008 40.8636 50.8703M20.0173 68.3915C20.6379 64.1185 22.1916 58.3831 26.4672 53.8582M26.4672 53.8582C27.2123 56.4075 28.1636 58.6499 28.9722 60.2161" stroke="black" stroke-linecap="round" stroke-linejoin="round"/>
</svg>
