<svg width="135" height="144" viewBox="0 0 135 144" fill="none" xmlns="http://www.w3.org/2000/svg">
<path d="M0.75 64.5106C0.75 72.6789 13.1856 79.3007 28.5257 79.3007C43.8658 79.3007 56.3014 72.6789 56.3014 64.5106M0.75 64.5106C0.75 56.3422 13.1856 49.7204 28.5257 49.7204C35.0943 49.7204 41.1303 50.9345 45.8855 52.9643M0.75 64.5106V81.9107M56.3014 64.5106C56.3014 63.9801 56.2489 63.4562 56.1467 62.9401M56.3014 64.5106V100.181M0.75 81.9107C0.75 90.0791 13.1856 96.7008 28.5257 96.7008C43.8658 96.7008 56.3014 90.0791 56.3014 81.9107M0.75 81.9107V100.181M0.75 100.181C0.75 108.349 13.1856 114.971 28.5257 114.971C43.8658 114.971 56.3014 108.349 56.3014 100.181M0.75 100.181V118.451C0.75 126.619 13.1856 133.241 28.5257 133.241C43.8658 133.241 56.3014 126.619 56.3014 118.451V100.181M56.3014 100.181V97.807C59.8113 99.3052 64.0191 100.359 68.6237 100.808M45.8855 15.7901C45.8855 23.9585 58.3211 30.5803 73.6612 30.5803C89.0013 30.5803 101.437 23.9585 101.437 15.7901M45.8855 15.7901C45.8855 7.62177 58.3211 1 73.6612 1C89.0013 1 101.437 7.62177 101.437 15.7901M45.8855 15.7901V33.1903M101.437 15.7901V33.1903M45.8855 33.1903C45.8855 41.3586 58.3211 47.9804 73.6612 47.9804C89.0013 47.9804 101.437 41.3586 101.437 33.1903M45.8855 33.1903V52.9643M101.437 33.1903V51.4604M101.437 51.4604C101.437 59.6288 89.0013 66.2506 73.6612 66.2506C67.0212 66.2506 60.9253 65.0099 56.1467 62.9401M101.437 51.4604V59.474M56.3014 81.2768C59.8113 82.7751 64.0191 83.8289 68.6237 84.2781M56.1467 62.9401C55.3484 58.9126 51.5143 55.367 45.8855 52.9643M88.859 95.7647V89.7298C88.859 83.5401 92.6467 78.5223 98.8464 78.5223H104.027C110.227 78.5223 114.015 83.5401 114.015 89.7298V95.7647M68.6237 100.808V104.534C68.6237 121.292 81.8297 135.904 101.437 142.75C121.051 135.906 134.25 121.297 134.25 104.534V77.1739L101.437 59.9868L68.6237 77.1739V84.2781M68.6237 100.808V84.2781M115.31 121.628H87.5638C85.1793 121.628 83.2463 119.698 83.2463 117.318V97.4889C83.2463 96.5366 84.0195 95.7647 84.9733 95.7647H117.9C118.854 95.7647 119.627 96.5366 119.627 97.4889V117.318C119.627 119.698 117.694 121.628 115.31 121.628Z" stroke="black" stroke-linecap="round" stroke-linejoin="round"/>
</svg>
