<svg width="176" height="135" viewBox="0 0 176 135" fill="none" xmlns="http://www.w3.org/2000/svg">
<path d="M92.3825 56.8022C96.8752 62.4245 107.217 77.799 119.614 78.9195C132.01 80.04 141.282 76.1236 141.282 76.1236M92.3825 56.8022C86.8638 62.6888 73.9087 70.3161 55.7003 70.2279C53.5468 70.2175 52.2229 67.7704 53.4454 65.9161C57.7949 59.3192 63.4213 54.8016 82.3865 29.587C84.0265 27.4066 86.206 25.9788 88.7909 25.1855M92.3825 56.8022C96.0794 52.3964 96.7836 48.7611 96.7836 48.7611M29.9903 100.004C25.5368 105.19 21.9973 111.323 26.2673 114.624C30.9563 118.249 35.8096 116.662 39.1504 114.589M29.9903 100.004C25.0733 101.622 15.0816 104.158 14.4503 101.353C13.7114 98.0707 21.6353 86.8735 24.1548 84.4919M29.9903 100.004C30.2401 99.7131 30.4928 99.4252 30.7471 99.1409M24.1548 84.4919C24.3261 84.33 24.4724 84.2088 24.5893 84.1337C24.8755 83.9497 24.6413 84.0093 24.0399 84.218M24.1548 84.4919C24.1164 84.4005 24.0781 84.3092 24.0399 84.218M24.1548 84.4919C26.1264 89.1883 28.3425 94.1902 30.7471 99.1409M24.0399 84.218C20.7824 85.3487 6.75197 90.8547 6.30624 85.7211C5.84063 80.3585 12.3781 68.8293 16.4789 64.9072M24.0399 84.218C20.7671 76.4047 18.1773 69.4609 16.5296 65.0431L16.4789 64.9072M124.648 119.358C122.092 120.407 118.964 121.982 114.662 122.778M114.662 122.778C113.285 121.307 110.849 119.542 106.445 116.853C98.8153 112.196 92.1471 98.5134 90.7734 92.684C101.842 97.3396 119.368 111.129 127.882 123.672C133.007 131.223 139.147 125.079 135.765 112.373M114.662 122.778C116.267 124.492 116.433 125.806 116.599 127.716C109.297 134.514 100.295 131.94 92.0536 125.762M135.765 112.373C138.516 110.709 142.228 109.962 150.448 111.232C151.168 111.344 151.876 111.544 152.557 111.816L172.551 119.786M135.765 112.373C133.278 103.029 125.1 93.4176 109.928 80.8168M88.7909 25.1855C105.096 20.1821 137.532 40.4282 152.464 56.3182C154.34 58.3146 156.737 59.7043 159.376 60.0524L175.108 62.128M88.7909 25.1855C84.8361 21.6835 78.6637 20.2088 70.4845 20.919C62.3054 21.6292 58.1952 24.539 53.3839 24.9568C49.5349 25.291 45.3935 24.1187 44.0225 23.2166L7.4405 0.75M58.7665 114.866C65.4357 126.541 81.5649 143.421 92.0536 125.762M92.0536 125.762C84.5948 120.17 77.759 111.627 73.3706 104.407M30.7471 99.1409C33.3508 104.501 36.1755 109.802 39.1504 114.589M39.1504 114.589C39.5144 115.174 39.8807 115.752 40.249 116.322M40.249 116.322C37.1474 121.9 33.3764 130.249 37.0403 132.581C40.9935 135.097 46.4834 133.477 51.3563 129.659M40.249 116.322C43.7938 121.802 47.5347 126.495 51.3563 129.659M51.3563 129.659C57.6366 134.86 64.1344 135.935 70.3365 129.601M16.4789 64.9072C15.6661 62.728 15.0887 61.1824 14.779 60.4765C13.9795 58.6547 8.13829 55.6645 0.5 52.4975" stroke="black" stroke-linecap="round" stroke-linejoin="round"/>
</svg>
